<mxfile host="app.diagrams.net" modified="2020-11-20T05:18:12.568Z" agent="5.0 (Macintosh; Intel Mac OS X 10_15_6) AppleWebKit/605.1.15 (KHTML, like Gecko) Version/14.0 Safari/605.1.15" etag="c9DM6YRYR71LaSStMTlK" version="13.9.9" type="github">
  <diagram name="Page-1" id="9f46799a-70d6-7492-0946-bef42562c5a5">
    <mxGraphModel dx="3477" dy="1403" grid="1" gridSize="10" guides="1" tooltips="1" connect="1" arrows="1" fold="1" page="1" pageScale="1" pageWidth="1100" pageHeight="850" background="#ffffff" math="0" shadow="0">
      <root>
        <mxCell id="0" />
        <mxCell id="1" parent="0" />
        <mxCell id="UiorlKcOibQ06lBWmMzU-14" value="&lt;span&gt;CarDetail: 车辆详情&lt;/span&gt;" style="shape=umlLifeline;perimeter=lifelinePerimeter;whiteSpace=wrap;html=1;container=1;collapsible=0;recursiveResize=0;outlineConnect=0;" vertex="1" parent="1">
          <mxGeometry x="-1030" y="35" width="100" height="1045" as="geometry" />
        </mxCell>
        <mxCell id="UiorlKcOibQ06lBWmMzU-19" value="1.点击立即购买按钮打开确认下单页" style="html=1;verticalAlign=bottom;endArrow=open;endSize=8;entryX=0;entryY=0.006;entryDx=0;entryDy=0;entryPerimeter=0;" edge="1" source="UiorlKcOibQ06lBWmMzU-14" parent="1" target="UiorlKcOibQ06lBWmMzU-25">
          <mxGeometry x="-0.0129" y="10" relative="1" as="geometry">
            <mxPoint x="-940" y="148" as="targetPoint" />
            <mxPoint x="-970.6764705882354" y="153.8599999999999" as="sourcePoint" />
            <mxPoint x="1" as="offset" />
          </mxGeometry>
        </mxCell>
        <mxCell id="UiorlKcOibQ06lBWmMzU-22" value="ConfirmOrder:确认下单" style="shape=umlLifeline;perimeter=lifelinePerimeter;whiteSpace=wrap;html=1;container=1;collapsible=0;recursiveResize=0;outlineConnect=0;fillColor=none;" vertex="1" parent="1">
          <mxGeometry x="-840" y="35" width="100" height="1035" as="geometry" />
        </mxCell>
        <mxCell id="UiorlKcOibQ06lBWmMzU-25" value="" style="html=1;points=[];perimeter=orthogonalPerimeter;fillColor=#000000;" vertex="1" parent="UiorlKcOibQ06lBWmMzU-22">
          <mxGeometry x="45" y="117" width="10" height="310" as="geometry" />
        </mxCell>
        <mxCell id="UiorlKcOibQ06lBWmMzU-47" value="&lt;span style=&quot;text-align: center&quot;&gt;4.切换支付方式&lt;/span&gt;" style="edgeStyle=orthogonalEdgeStyle;html=1;align=left;spacingLeft=2;endArrow=block;rounded=0;strokeColor=#000000;exitX=1.033;exitY=0.386;exitDx=0;exitDy=0;exitPerimeter=0;" edge="1" parent="UiorlKcOibQ06lBWmMzU-22" source="UiorlKcOibQ06lBWmMzU-25">
          <mxGeometry x="-0.0395" relative="1" as="geometry">
            <mxPoint x="-35" y="177" as="sourcePoint" />
            <Array as="points">
              <mxPoint x="120" y="237" />
              <mxPoint x="120" y="262" />
              <mxPoint x="55" y="262" />
            </Array>
            <mxPoint x="55" y="262" as="targetPoint" />
            <mxPoint as="offset" />
          </mxGeometry>
        </mxCell>
        <mxCell id="UiorlKcOibQ06lBWmMzU-29" value="5.1 订单表新增一条数据" style="edgeStyle=orthogonalEdgeStyle;html=1;align=left;spacingLeft=2;endArrow=block;rounded=0;strokeColor=#000000;" edge="1" parent="1">
          <mxGeometry x="0.0001" relative="1" as="geometry">
            <mxPoint x="300.0035294117653" y="352" as="sourcePoint" />
            <Array as="points">
              <mxPoint x="360.68" y="352" />
              <mxPoint x="360.68" y="392" />
            </Array>
            <mxPoint x="300.0035294117653" y="392" as="targetPoint" />
            <mxPoint as="offset" />
          </mxGeometry>
        </mxCell>
        <mxCell id="UiorlKcOibQ06lBWmMzU-31" value="PayingVC: 支付页" style="shape=umlLifeline;perimeter=lifelinePerimeter;whiteSpace=wrap;html=1;container=1;collapsible=0;recursiveResize=0;outlineConnect=0;fillColor=none;" vertex="1" parent="1">
          <mxGeometry x="-330" y="35" width="100" height="1045" as="geometry" />
        </mxCell>
        <mxCell id="UiorlKcOibQ06lBWmMzU-33" value="" style="html=1;points=[];perimeter=orthogonalPerimeter;fillColor=#000000;" vertex="1" parent="UiorlKcOibQ06lBWmMzU-31">
          <mxGeometry x="45" y="427" width="10" height="543" as="geometry" />
        </mxCell>
        <mxCell id="UiorlKcOibQ06lBWmMzU-34" value="&lt;span style=&quot;text-align: center&quot;&gt;8.选择支付方式&lt;/span&gt;" style="edgeStyle=orthogonalEdgeStyle;html=1;align=left;spacingLeft=2;endArrow=block;rounded=0;strokeColor=#000000;exitX=1;exitY=0.107;exitDx=0;exitDy=0;exitPerimeter=0;entryX=1;entryY=0.217;entryDx=0;entryDy=0;entryPerimeter=0;" edge="1" target="UiorlKcOibQ06lBWmMzU-33" parent="UiorlKcOibQ06lBWmMzU-31" source="UiorlKcOibQ06lBWmMzU-33">
          <mxGeometry relative="1" as="geometry">
            <mxPoint x="145" y="452" as="sourcePoint" />
            <Array as="points">
              <mxPoint x="120" y="485" />
              <mxPoint x="120" y="545" />
              <mxPoint x="55" y="545" />
            </Array>
            <mxPoint as="offset" />
          </mxGeometry>
        </mxCell>
        <mxCell id="UiorlKcOibQ06lBWmMzU-51" value="11. 调起第三方支付, 拿到支付结果" style="edgeStyle=orthogonalEdgeStyle;html=1;align=left;spacingLeft=2;endArrow=block;rounded=0;strokeColor=#000000;exitX=1.067;exitY=0.455;exitDx=0;exitDy=0;exitPerimeter=0;" edge="1" parent="UiorlKcOibQ06lBWmMzU-31" source="UiorlKcOibQ06lBWmMzU-33">
          <mxGeometry x="0.0404" relative="1" as="geometry">
            <mxPoint x="15" y="527" as="sourcePoint" />
            <Array as="points">
              <mxPoint x="150" y="674" />
              <mxPoint x="150" y="702" />
            </Array>
            <mxPoint x="54" y="702" as="targetPoint" />
            <mxPoint as="offset" />
          </mxGeometry>
        </mxCell>
        <mxCell id="UiorlKcOibQ06lBWmMzU-65" value="12.支付成功,打开支付结果页" style="html=1;verticalAlign=bottom;endArrow=block;strokeColor=#000000;" edge="1" parent="UiorlKcOibQ06lBWmMzU-31" target="UiorlKcOibQ06lBWmMzU-64">
          <mxGeometry width="80" relative="1" as="geometry">
            <mxPoint x="50" y="745" as="sourcePoint" />
            <mxPoint x="140" y="745" as="targetPoint" />
          </mxGeometry>
        </mxCell>
        <mxCell id="UiorlKcOibQ06lBWmMzU-30" value="7.跳转支付页" style="html=1;verticalAlign=bottom;startArrow=oval;startFill=1;endArrow=block;startSize=8;strokeColor=#000000;entryX=-0.1;entryY=0;entryDx=0;entryDy=0;entryPerimeter=0;" edge="1" parent="1" target="UiorlKcOibQ06lBWmMzU-33">
          <mxGeometry width="60" relative="1" as="geometry">
            <mxPoint x="-790.6764705882354" y="462" as="sourcePoint" />
            <mxPoint x="-540.5" y="462" as="targetPoint" />
            <Array as="points">
              <mxPoint x="-570" y="462" />
            </Array>
          </mxGeometry>
        </mxCell>
        <mxCell id="UiorlKcOibQ06lBWmMzU-37" value="5.点击立即支付调用下单接口" style="html=1;verticalAlign=bottom;endArrow=open;endSize=8;strokeColor=#000000;exitX=-0.1;exitY=0.613;exitDx=0;exitDy=0;exitPerimeter=0;" edge="1" parent="1" source="UiorlKcOibQ06lBWmMzU-25" target="UiorlKcOibQ06lBWmMzU-40">
          <mxGeometry x="-0.5962" relative="1" as="geometry">
            <mxPoint x="-640" y="332" as="sourcePoint" />
            <mxPoint x="-320.5" y="342.03" as="targetPoint" />
            <mxPoint as="offset" />
          </mxGeometry>
        </mxCell>
        <mxCell id="UiorlKcOibQ06lBWmMzU-40" value="Provider服务端" style="shape=umlLifeline;perimeter=lifelinePerimeter;whiteSpace=wrap;html=1;container=1;collapsible=0;recursiveResize=0;outlineConnect=0;fillColor=none;" vertex="1" parent="1">
          <mxGeometry x="250" y="35" width="100" height="1020" as="geometry" />
        </mxCell>
        <mxCell id="UiorlKcOibQ06lBWmMzU-43" value="" style="html=1;points=[];perimeter=orthogonalPerimeter;fillColor=#000000;" vertex="1" parent="UiorlKcOibQ06lBWmMzU-40">
          <mxGeometry x="45" y="127" width="10" height="70" as="geometry" />
        </mxCell>
        <mxCell id="UiorlKcOibQ06lBWmMzU-44" value="2.1 金额表查询" style="edgeStyle=orthogonalEdgeStyle;html=1;align=left;spacingLeft=2;endArrow=block;rounded=0;entryX=1.016;entryY=0.755;strokeColor=#000000;exitX=0.968;exitY=0.304;exitDx=0;exitDy=0;exitPerimeter=0;entryDx=0;entryDy=0;entryPerimeter=0;" edge="1" target="UiorlKcOibQ06lBWmMzU-43" parent="UiorlKcOibQ06lBWmMzU-40" source="UiorlKcOibQ06lBWmMzU-43">
          <mxGeometry relative="1" as="geometry">
            <mxPoint x="60" y="157" as="sourcePoint" />
            <Array as="points">
              <mxPoint x="60" y="148" />
              <mxPoint x="90" y="148" />
              <mxPoint x="90" y="180" />
            </Array>
          </mxGeometry>
        </mxCell>
        <mxCell id="UiorlKcOibQ06lBWmMzU-48" value="" style="html=1;points=[];perimeter=orthogonalPerimeter;fillColor=#000000;" vertex="1" parent="UiorlKcOibQ06lBWmMzU-40">
          <mxGeometry x="45" y="297" width="10" height="80" as="geometry" />
        </mxCell>
        <mxCell id="UiorlKcOibQ06lBWmMzU-53" value="" style="html=1;points=[];perimeter=orthogonalPerimeter;fillColor=#000000;" vertex="1" parent="UiorlKcOibQ06lBWmMzU-40">
          <mxGeometry x="45" y="500" width="10" height="150" as="geometry" />
        </mxCell>
        <mxCell id="UiorlKcOibQ06lBWmMzU-60" value="" style="html=1;points=[];perimeter=orthogonalPerimeter;fillColor=#000000;" vertex="1" parent="UiorlKcOibQ06lBWmMzU-40">
          <mxGeometry x="45" y="757" width="10" height="80" as="geometry" />
        </mxCell>
        <mxCell id="UiorlKcOibQ06lBWmMzU-42" value="&lt;span style=&quot;text-align: left&quot;&gt;&amp;nbsp;2.请求接口获取定金支付时需要支付的金额&lt;/span&gt;" style="html=1;verticalAlign=bottom;endArrow=block;strokeColor=#000000;exitX=1.028;exitY=0.065;exitDx=0;exitDy=0;exitPerimeter=0;" edge="1" parent="1" source="UiorlKcOibQ06lBWmMzU-25" target="UiorlKcOibQ06lBWmMzU-40">
          <mxGeometry x="-0.4627" width="80" relative="1" as="geometry">
            <mxPoint x="-680" y="172" as="sourcePoint" />
            <mxPoint x="-320.5" y="172.1500000000001" as="targetPoint" />
            <mxPoint as="offset" />
          </mxGeometry>
        </mxCell>
        <mxCell id="UiorlKcOibQ06lBWmMzU-45" value="3.获取定金支付金额" style="html=1;verticalAlign=bottom;endArrow=open;dashed=1;endSize=8;strokeColor=#000000;entryX=0.95;entryY=0.244;entryDx=0;entryDy=0;entryPerimeter=0;" edge="1" parent="1" source="UiorlKcOibQ06lBWmMzU-40" target="UiorlKcOibQ06lBWmMzU-25">
          <mxGeometry x="0.5892" relative="1" as="geometry">
            <mxPoint x="-320.5" y="227.6400000000001" as="sourcePoint" />
            <mxPoint x="-610" y="112" as="targetPoint" />
            <mxPoint as="offset" />
          </mxGeometry>
        </mxCell>
        <mxCell id="UiorlKcOibQ06lBWmMzU-49" value="6.获取订单model" style="html=1;verticalAlign=bottom;endArrow=open;dashed=1;endSize=8;strokeColor=#000000;entryX=0.935;entryY=0.807;entryDx=0;entryDy=0;entryPerimeter=0;" edge="1" parent="1" source="UiorlKcOibQ06lBWmMzU-40" target="UiorlKcOibQ06lBWmMzU-25">
          <mxGeometry x="0.5887" relative="1" as="geometry">
            <mxPoint x="-320.5" y="402.1700000000001" as="sourcePoint" />
            <mxPoint x="-780" y="402" as="targetPoint" />
            <mxPoint as="offset" />
          </mxGeometry>
        </mxCell>
        <mxCell id="UiorlKcOibQ06lBWmMzU-52" value="9.请求接口获取支付签名" style="html=1;verticalAlign=bottom;endArrow=block;strokeColor=#000000;exitX=0.959;exitY=0.292;exitDx=0;exitDy=0;exitPerimeter=0;" edge="1" parent="1" source="UiorlKcOibQ06lBWmMzU-33" target="UiorlKcOibQ06lBWmMzU-40">
          <mxGeometry x="-0.4348" y="7" width="80" relative="1" as="geometry">
            <mxPoint x="-340" y="592" as="sourcePoint" />
            <mxPoint x="-180" y="592" as="targetPoint" />
            <mxPoint as="offset" />
          </mxGeometry>
        </mxCell>
        <mxCell id="UiorlKcOibQ06lBWmMzU-56" value="OrderDetail: 订单详情" style="shape=umlLifeline;perimeter=lifelinePerimeter;whiteSpace=wrap;html=1;container=1;collapsible=0;recursiveResize=0;outlineConnect=0;fillColor=none;" vertex="1" parent="1">
          <mxGeometry x="-520" y="35" width="100" height="1035" as="geometry" />
        </mxCell>
        <mxCell id="UiorlKcOibQ06lBWmMzU-59" value="13.请求获取订单详情接口" style="html=1;verticalAlign=bottom;endArrow=block;strokeColor=#000000;" edge="1" parent="UiorlKcOibQ06lBWmMzU-56" target="UiorlKcOibQ06lBWmMzU-60">
          <mxGeometry x="-0.7966" width="80" relative="1" as="geometry">
            <mxPoint x="50" y="785" as="sourcePoint" />
            <mxPoint x="130" y="775" as="targetPoint" />
            <mxPoint as="offset" />
          </mxGeometry>
        </mxCell>
        <mxCell id="UiorlKcOibQ06lBWmMzU-62" value="" style="html=1;points=[];perimeter=orthogonalPerimeter;fillColor=#000000;" vertex="1" parent="UiorlKcOibQ06lBWmMzU-56">
          <mxGeometry x="45" y="750" width="10" height="220" as="geometry" />
        </mxCell>
        <mxCell id="UiorlKcOibQ06lBWmMzU-63" value="15. 查看合同" style="edgeStyle=orthogonalEdgeStyle;html=1;align=left;spacingLeft=2;endArrow=block;rounded=0;strokeColor=#000000;exitX=0.981;exitY=0.473;exitDx=0;exitDy=0;exitPerimeter=0;" edge="1" parent="UiorlKcOibQ06lBWmMzU-56" source="UiorlKcOibQ06lBWmMzU-62">
          <mxGeometry relative="1" as="geometry">
            <mxPoint x="56" y="825" as="sourcePoint" />
            <Array as="points">
              <mxPoint x="80" y="854" />
              <mxPoint x="80" y="875" />
              <mxPoint x="56" y="875" />
            </Array>
            <mxPoint x="56" y="875" as="targetPoint" />
          </mxGeometry>
        </mxCell>
        <mxCell id="UiorlKcOibQ06lBWmMzU-73" value="16. 判断是否有尾款未支付" style="edgeStyle=orthogonalEdgeStyle;html=1;align=left;spacingLeft=2;endArrow=block;rounded=0;strokeColor=#000000;entryX=1.091;entryY=0.81;entryDx=0;entryDy=0;entryPerimeter=0;" edge="1" target="UiorlKcOibQ06lBWmMzU-62" parent="UiorlKcOibQ06lBWmMzU-56">
          <mxGeometry x="-0.0165" relative="1" as="geometry">
            <mxPoint x="56" y="895" as="sourcePoint" />
            <Array as="points">
              <mxPoint x="100" y="895" />
              <mxPoint x="100" y="928" />
              <mxPoint x="56" y="928" />
            </Array>
            <mxPoint x="110" y="1055" as="targetPoint" />
            <mxPoint as="offset" />
          </mxGeometry>
        </mxCell>
        <mxCell id="UiorlKcOibQ06lBWmMzU-74" value="17. 打开支付页面" style="html=1;verticalAlign=bottom;endArrow=block;strokeColor=#000000;" edge="1" parent="UiorlKcOibQ06lBWmMzU-56" target="UiorlKcOibQ06lBWmMzU-31">
          <mxGeometry width="80" relative="1" as="geometry">
            <mxPoint x="60" y="955" as="sourcePoint" />
            <mxPoint x="140" y="955" as="targetPoint" />
          </mxGeometry>
        </mxCell>
        <mxCell id="UiorlKcOibQ06lBWmMzU-54" value="10. 拿到签名" style="html=1;verticalAlign=bottom;endArrow=open;dashed=1;endSize=8;strokeColor=#000000;entryX=1.1;entryY=0.363;entryDx=0;entryDy=0;entryPerimeter=0;" edge="1" parent="1" source="UiorlKcOibQ06lBWmMzU-40" target="UiorlKcOibQ06lBWmMzU-33">
          <mxGeometry x="0.7844" relative="1" as="geometry">
            <mxPoint x="-320.5" y="661.3199999999999" as="sourcePoint" />
            <mxPoint x="-271" y="700" as="targetPoint" />
            <mxPoint as="offset" />
          </mxGeometry>
        </mxCell>
        <mxCell id="UiorlKcOibQ06lBWmMzU-61" value="14.获取订单详情的接口数据" style="html=1;verticalAlign=bottom;endArrow=open;dashed=1;endSize=8;strokeColor=#000000;entryX=1.2;entryY=0.314;entryDx=0;entryDy=0;entryPerimeter=0;" edge="1" parent="1" source="UiorlKcOibQ06lBWmMzU-40" target="UiorlKcOibQ06lBWmMzU-62">
          <mxGeometry x="0.7892" relative="1" as="geometry">
            <mxPoint x="-210" y="850" as="sourcePoint" />
            <mxPoint x="-350" y="873" as="targetPoint" />
            <mxPoint x="1" as="offset" />
          </mxGeometry>
        </mxCell>
        <mxCell id="UiorlKcOibQ06lBWmMzU-64" value="PayingResultVC: 支付结果页" style="shape=umlLifeline;perimeter=lifelinePerimeter;whiteSpace=wrap;html=1;container=1;collapsible=0;recursiveResize=0;outlineConnect=0;fillColor=none;" vertex="1" parent="1">
          <mxGeometry x="30" y="35" width="100" height="1045" as="geometry" />
        </mxCell>
        <mxCell id="UiorlKcOibQ06lBWmMzU-66" value="" style="html=1;points=[];perimeter=orthogonalPerimeter;fillColor=#000000;" vertex="1" parent="UiorlKcOibQ06lBWmMzU-64">
          <mxGeometry x="45" y="725" width="10" height="225" as="geometry" />
        </mxCell>
        <mxCell id="UiorlKcOibQ06lBWmMzU-71" value="18. 查看订单详情页面" style="edgeStyle=orthogonalEdgeStyle;html=1;align=left;spacingLeft=2;endArrow=block;rounded=0;strokeColor=#000000;" edge="1" target="UiorlKcOibQ06lBWmMzU-56" parent="1" source="UiorlKcOibQ06lBWmMzU-66">
          <mxGeometry x="-0.1605" y="-10" relative="1" as="geometry">
            <mxPoint x="180" y="950" as="sourcePoint" />
            <Array as="points">
              <mxPoint x="210" y="970" />
              <mxPoint x="210" y="1060" />
              <mxPoint x="-680" y="1060" />
              <mxPoint x="-680" y="790" />
            </Array>
            <mxPoint as="offset" />
          </mxGeometry>
        </mxCell>
      </root>
    </mxGraphModel>
  </diagram>
</mxfile>
